<svg width="200" height="100" viewBox="0 0 200 100" fill="none" xmlns="http://www.w3.org/2000/svg">
<path d="M171.201 71C165.123 77 158.418 82.1905 151.085 86.5714C143.85 90.8571 135.987 94.1905 127.496 96.5714C119.103 98.8571 110.323 100 101.158 100H84.5152V54.2857C80.0772 61.1429 74.8191 67.381 68.741 73C62.7593 78.619 56.1505 83.4286 48.9146 87.4286C41.6787 91.4286 33.9122 94.5238 25.6151 96.7143C17.4144 98.9048 8.87603 100 0 100V83.5714C7.71828 83.5714 15.1471 82.5238 22.2865 80.4286C29.5224 78.3333 36.2759 75.4762 42.547 71.8571C48.8181 68.1429 54.5104 63.7143 59.6237 58.5714C64.8336 53.4286 69.2716 47.8095 72.9378 41.7143C76.604 35.619 79.4501 29.1429 81.4761 22.2857C83.5022 15.4286 84.5152 8.42857 84.5152 1.28571V0C91.0145 0 101.158 0 101.158 0V83.5714C112.639 83.5714 123.396 81.4286 133.43 77.1429C143.464 72.7619 152.147 66.8571 159.479 59.4286C166.908 51.9048 172.745 43.1429 176.99 33.1429C181.235 23.1429 183.357 12.5238 183.357 1.28571V0H200V1.28571C200 10.3333 198.794 19.0952 196.382 27.5714C194.067 35.9524 190.786 43.7619 186.541 51C185.432 52.8887 184.387 54.5654 183.357 56.1136C179.801 61.462 176.428 65.2769 171.201 71Z" fill="#163300"/>
<path d="M200 1.28571C200 10.3333 198.794 19.0952 196.382 27.5714C194.067 35.9524 190.786 43.7619 186.541 51C185.432 52.8887 184.387 54.5654 183.357 56.1136V100H200V1.28571Z" fill="#163300"/>
</svg>
