<svg width="48" height="18" viewBox="0 0 48 18" fill="none" xmlns="http://www.w3.org/2000/svg">
<path d="M0 9C0 4.02944 4.02944 0 9 0H39C43.9706 0 48 4.02944 48 9C48 13.9706 43.9706 18 39 18H9C4.02944 18 0 13.9706 0 9Z" fill="#4972CF"/>
<path d="M23.5054 8.81519V7.75736C23.3725 7.90607 23.2568 8.07222 23.1586 8.2558L23.5054 8.81519Z" fill="white"/>
<path d="M27.1223 7.18674C26.7094 6.97127 26.2387 6.86354 25.7102 6.86354C25.1405 6.86354 24.6326 6.9837 24.1867 7.22403C23.9237 7.36578 23.6966 7.54355 23.5054 7.75736V8.81519L23.1586 8.2558C23.2568 8.07222 23.3725 7.90607 23.5054 7.75736V6.96298H21.6598V13.6508H23.5921V10.3442C23.5921 9.92983 23.6582 9.59005 23.7903 9.32486C23.9307 9.05967 24.1206 8.86492 24.3601 8.74061C24.6078 8.60801 24.8845 8.54171 25.19 8.54171C25.6194 8.54171 25.9497 8.67017 26.1809 8.92707C26.4204 9.18398 26.5401 9.58177 26.5401 10.1204V13.6508H28.4724V9.8221C28.4724 9.14254 28.3527 8.58729 28.1132 8.15635C27.8737 7.71713 27.5434 7.39392 27.1223 7.18674Z" fill="white"/>
<path fill-rule="evenodd" clip-rule="evenodd" d="M15.5564 13.8C14.871 13.8 14.2352 13.6881 13.6489 13.4644C13.0709 13.2406 12.5671 12.9257 12.1377 12.5196C11.7166 12.1135 11.3863 11.637 11.1468 11.0901C10.9156 10.5431 10.8 9.94641 10.8 9.3C10.8 8.65359 10.9156 8.05691 11.1468 7.50995C11.3863 6.96298 11.7207 6.48646 12.1501 6.08039C12.5795 5.67431 13.0832 5.35939 13.6613 5.13564C14.2393 4.91188 14.8669 4.8 15.544 4.8C16.2294 4.8 16.857 4.91188 17.4268 5.13564C18.0048 5.35939 18.5044 5.67431 18.9255 6.08039C19.3549 6.48646 19.6894 6.96298 19.9288 7.50995C20.1683 8.04862 20.288 8.6453 20.288 9.3C20.288 9.94641 20.1683 10.5472 19.9288 11.1025C19.6894 11.6494 19.3549 12.126 18.9255 12.532C18.5044 12.9298 18.0048 13.2406 17.4268 13.4644C16.857 13.6881 16.2335 13.8 15.5564 13.8ZM16.6093 11.8856C16.2872 12.0182 15.9321 12.0845 15.544 12.0845C15.1559 12.0845 14.7967 12.0182 14.4664 11.8856C14.1361 11.753 13.8471 11.5624 13.5993 11.3138C13.3599 11.0652 13.1699 10.771 13.0296 10.4312C12.8974 10.0831 12.8314 9.70608 12.8314 9.3C12.8314 8.88564 12.8974 8.50856 13.0296 8.16879C13.1699 7.82901 13.364 7.53481 13.6117 7.28619C13.8595 7.03757 14.1444 6.84696 14.4664 6.71436C14.7967 6.58177 15.1559 6.51547 15.544 6.51547C15.9321 6.51547 16.2913 6.58177 16.6216 6.71436C16.952 6.84696 17.2368 7.03757 17.4763 7.28619C17.724 7.53481 17.914 7.82901 18.0461 8.16879C18.1865 8.50856 18.2567 8.88564 18.2567 9.3C18.2567 9.71437 18.1865 10.0914 18.0461 10.4312C17.914 10.771 17.724 11.0652 17.4763 11.3138C17.2286 11.5624 16.9396 11.753 16.6093 11.8856Z" fill="white"/>
<path d="M31.5729 13.3028C32.1509 13.6011 32.8198 13.7503 33.5795 13.7503C34.1823 13.7503 34.7149 13.6591 35.1774 13.4768C35.6398 13.2862 36.0238 13.0169 36.3293 12.6688L35.3012 11.55C35.0783 11.7655 34.8306 11.9271 34.558 12.0348C34.2938 12.1425 33.9841 12.1964 33.6291 12.1964C33.2327 12.1964 32.8859 12.126 32.5886 11.9851C32.2996 11.8359 32.0725 11.6246 31.9073 11.3511C31.8219 11.1977 31.7597 11.0319 31.7208 10.8539H31.3499V9.72265H31.6985C31.7306 9.51549 31.792 9.32902 31.8826 9.16326C32.0229 8.89807 32.217 8.69503 32.4647 8.55414C32.7207 8.40497 33.0139 8.33039 33.3442 8.33039C33.6745 8.33039 33.9635 8.40497 34.2112 8.55414C34.459 8.69503 34.653 8.89392 34.7934 9.15083C34.8866 9.32135 34.9488 9.51196 34.9802 9.72265H35.7471L35.004 10.0583C35.004 9.94126 34.996 9.82938 34.9802 9.72265H31.6985C31.6808 9.83656 31.672 9.95673 31.672 10.0831V10.3815C31.672 10.5475 31.6883 10.705 31.7208 10.8539H36.7628C36.7711 10.771 36.7794 10.684 36.7876 10.5928C36.7959 10.4934 36.8 10.4064 36.8 10.3318C36.8 9.61077 36.6472 8.99337 36.3417 8.47956C36.0362 7.95746 35.6192 7.55967 35.0907 7.28619C34.5704 7.00442 33.9841 6.86354 33.3318 6.86354C32.6547 6.86354 32.0477 7.01271 31.511 7.31105C30.9742 7.60111 30.549 8.00718 30.2352 8.52928C29.9296 9.04309 29.7769 9.63563 29.7769 10.3069C29.7769 10.9699 29.9338 11.5624 30.2476 12.0845C30.5613 12.5983 31.0031 13.0044 31.5729 13.3028Z" fill="white"/>
<path d="M31.3499 9.72265V10.8539H31.7208C31.6883 10.705 31.672 10.5475 31.672 10.3815V10.0831C31.672 9.95673 31.6808 9.83656 31.6985 9.72265H31.3499Z" fill="white"/>
<path d="M35.004 10.0583L35.7471 9.72265H34.9802C34.996 9.82938 35.004 9.94126 35.004 10.0583Z" fill="white"/>
</svg>
